<svg width="123" height="22" viewBox="0 0 123 22" fill="none" xmlns="http://www.w3.org/2000/svg">
<path d="M10.5692 0.215154C11.9837 0.215154 13.2934 0.463996 14.4983 0.961679C15.7294 1.45936 16.8165 2.1404 17.7595 3.0048C17.8118 3.05719 17.8511 3.09648 17.8773 3.12268C17.9035 3.14887 17.9428 3.18816 17.9952 3.24055H18.0345C18.1131 3.37152 18.1524 3.48939 18.1524 3.59417C18.1524 3.8823 18.0083 4.02636 17.7202 4.02636C17.5368 4.02636 17.4058 3.96088 17.3273 3.82991C16.4629 2.99171 15.4675 2.33686 14.3412 1.86537C13.2148 1.36769 11.9837 1.10575 10.6478 1.07955H10.5692C9.46909 1.07955 8.43443 1.34149 7.46526 1.86537C6.52228 2.36305 5.68407 3.05719 4.95064 3.94778C4.24341 4.81218 3.68024 5.83374 3.26114 7.01247C2.84204 8.19119 2.63249 9.4485 2.63249 10.7844C2.63249 12.1203 2.84204 13.3776 3.26114 14.5563C3.68024 15.735 4.24341 16.7566 4.95064 17.621C5.68407 18.4854 6.52228 19.1795 7.46526 19.7034C8.43443 20.2011 9.46909 20.4499 10.5692 20.4499H10.6085C11.9444 20.4499 13.1886 20.2011 14.3412 19.7034C15.5199 19.2057 16.5414 18.5116 17.4058 17.621C17.4844 17.5424 17.5892 17.5031 17.7202 17.5031C18.0083 17.5031 18.1524 17.6472 18.1524 17.9353C18.1524 18.0663 18.1131 18.1711 18.0345 18.2496C17.0653 19.2188 15.939 19.9784 14.6555 20.5285C13.3982 21.0786 12.0361 21.3536 10.5692 21.3536C9.10237 21.3536 7.7272 21.0786 6.44369 20.5285C5.16019 19.9784 4.03386 19.2188 3.06468 18.2496C2.1217 17.2805 1.37518 16.1672 0.825107 14.9099C0.275036 13.6264 0 12.2512 0 10.7844C0 9.31753 0.275036 7.94235 0.825107 6.65885C1.37518 5.37535 2.1217 4.26211 3.06468 3.31913C4.03386 2.34996 5.16019 1.59033 6.44369 1.04026C7.7272 0.49019 9.10237 0.215154 10.5692 0.215154ZM26.2717 8.97701C27.11 8.97701 27.8958 9.13417 28.6292 9.4485C29.3626 9.76283 30.0044 10.195 30.5544 10.7451C31.1045 11.2952 31.5367 11.9369 31.851 12.6703C32.1654 13.4038 32.3225 14.1896 32.3225 15.0278C32.3225 15.866 32.1654 16.6518 31.851 17.3852C31.5367 18.1187 31.1045 18.7604 30.5544 19.3105C30.0044 19.8606 29.3626 20.2928 28.6292 20.6071C27.8958 20.9214 27.11 21.0786 26.2717 21.0786C25.4335 21.0786 24.6477 20.9214 23.9143 20.6071C23.1809 20.2928 22.5391 19.8606 21.989 19.3105C21.439 18.7604 21.0068 18.1187 20.6925 17.3852C20.3781 16.6518 20.221 15.866 20.221 15.0278C20.221 14.1896 20.3781 13.4038 20.6925 12.6703C21.0068 11.9369 21.439 11.2952 21.989 10.7451C22.5391 10.195 23.1809 9.76283 23.9143 9.4485C24.6477 9.13417 25.4335 8.97701 26.2717 8.97701ZM26.2717 9.84141C25.8003 9.84141 25.355 9.98547 24.9359 10.2736C24.5168 10.5355 24.15 10.9023 23.8357 11.3737C23.5214 11.8452 23.2725 12.3953 23.0892 13.024C22.9058 13.6526 22.8142 14.3206 22.8142 15.0278C22.8142 15.735 22.9058 16.403 23.0892 17.0316C23.2725 17.6603 23.5214 18.2104 23.8357 18.6818C24.15 19.1533 24.5168 19.5331 24.9359 19.8213C25.355 20.0832 25.8003 20.2142 26.2717 20.2142C26.7432 20.2142 27.1885 20.0832 27.6076 19.8213C28.0267 19.5331 28.3935 19.1533 28.7078 18.6818C29.0221 18.2104 29.2709 17.6603 29.4543 17.0316C29.6377 16.403 29.7293 15.735 29.7293 15.0278C29.7293 14.3206 29.6377 13.6526 29.4543 13.024C29.2709 12.3953 29.0221 11.8452 28.7078 11.3737C28.3935 10.9023 28.0267 10.5355 27.6076 10.2736C27.1885 9.98547 26.7432 9.84141 26.2717 9.84141ZM34.4178 6.50169C34.4178 5.68968 34.575 4.93005 34.8893 4.22282C35.2037 3.48939 35.6228 2.86074 36.1466 2.33686C36.6967 1.78679 37.3254 1.35459 38.0326 1.04026C38.766 0.699742 39.5387 0.529481 40.3508 0.529481H40.39C40.6782 0.529481 40.8222 0.673547 40.8222 0.961679C40.8222 1.24981 40.6782 1.39388 40.39 1.39388C39.9186 1.39388 39.4733 1.52485 39.0542 1.78679C38.6351 2.04873 38.2683 2.41544 37.954 2.88693C37.6659 3.35842 37.4301 3.90849 37.2468 4.53714C37.0634 5.1396 36.9717 5.79445 36.9717 6.50169V10.6272H39.5649C39.8531 10.6272 39.9971 10.7713 39.9971 11.0594C39.9971 11.3214 39.8531 11.4523 39.5649 11.4523H36.9717V19.7427C36.9717 20.0832 36.8408 20.3844 36.5788 20.6464C36.3431 20.8821 36.0419 21 35.6751 21C35.3346 21 35.0334 20.8821 34.7715 20.6464C34.5357 20.3844 34.4178 20.0832 34.4178 19.7427V6.50169ZM43.2429 6.50169C43.2429 5.68968 43.4001 4.93005 43.7144 4.22282C44.0287 3.48939 44.4478 2.86074 44.9717 2.33686C45.5218 1.78679 46.1504 1.35459 46.8577 1.04026C47.5911 0.699742 48.3638 0.529481 49.1758 0.529481H49.2151C49.5033 0.529481 49.6473 0.673547 49.6473 0.961679C49.6473 1.24981 49.5033 1.39388 49.2151 1.39388C48.7436 1.39388 48.2983 1.52485 47.8792 1.78679C47.4601 2.04873 47.0934 2.41544 46.7791 2.88693C46.491 3.35842 46.2552 3.90849 46.0719 4.53714C45.8885 5.1396 45.7968 5.79445 45.7968 6.50169V10.6272H48.39C48.6782 10.6272 48.8222 10.7713 48.8222 11.0594C48.8222 11.3214 48.6782 11.4523 48.39 11.4523H45.7968V19.7427C45.7968 20.0832 45.6659 20.3844 45.4039 20.6464C45.1682 20.8821 44.8669 21 44.5002 21C44.1597 21 43.8585 20.8821 43.5965 20.6464C43.3608 20.3844 43.2429 20.0832 43.2429 19.7427V6.50169ZM56.5456 21.0786C55.7074 21.0786 54.9216 20.9214 54.1882 20.6071C53.4548 20.2928 52.813 19.8606 52.2629 19.3105C51.7129 18.7604 51.2807 18.1187 50.9663 17.3852C50.652 16.6518 50.4948 15.866 50.4948 15.0278C50.4948 14.1896 50.652 13.4038 50.9663 12.6703C51.2807 11.9369 51.7129 11.2952 52.2629 10.7451C52.813 10.195 53.4548 9.76283 54.1882 9.4485C54.9216 9.13417 55.7074 8.97701 56.5456 8.97701C57.3838 8.97701 58.1697 9.13417 58.9031 9.4485C59.6365 9.76283 60.2783 10.195 60.8283 10.7451C61.3784 11.2952 61.8106 11.9369 62.1249 12.6703C62.4393 13.4038 62.5964 14.1896 62.5964 15.0278C62.5964 15.185 62.5833 15.3421 62.5571 15.4993C62.5571 15.6303 62.544 15.7612 62.5178 15.8922H61.8892H59.9639H53.9917C53.7036 15.8922 53.5595 15.7481 53.5595 15.46C53.5595 15.1719 53.7036 15.0278 53.9917 15.0278H60.0032C60.0032 14.3206 59.9115 13.6526 59.7282 13.024C59.5448 12.3953 59.296 11.8452 58.9817 11.3737C58.6673 10.9023 58.3006 10.5355 57.8815 10.2736C57.4624 9.98547 57.0171 9.84141 56.5456 9.84141C56.0741 9.84141 55.6288 9.98547 55.2097 10.2736C54.7906 10.5355 54.4239 10.9023 54.1096 11.3737C53.7953 11.8452 53.5464 12.3953 53.3631 13.024C53.1797 13.6526 53.088 14.3206 53.088 15.0278C53.088 15.735 53.1797 16.403 53.3631 17.0316C53.5464 17.6603 53.7953 18.2104 54.1096 18.6818C54.4239 19.1533 54.7906 19.5331 55.2097 19.8213C55.6288 20.0832 56.0741 20.2142 56.5456 20.2142H56.6242C57.3053 20.2142 57.947 20.0832 58.5495 19.8213C59.1781 19.5331 59.7282 19.1664 60.1997 18.7211C60.3045 18.6164 60.4092 18.564 60.514 18.564C60.8021 18.564 60.9462 18.708 60.9462 18.9962C60.9462 19.1533 60.8938 19.2712 60.789 19.3498C60.239 19.8737 59.5972 20.2928 58.8638 20.6071C58.1566 20.9214 57.3838 21.0786 56.5456 21.0786ZM70.6274 21.0786C69.7892 21.0786 69.0034 20.9214 68.27 20.6071C67.5365 20.2928 66.8948 19.8606 66.3447 19.3105C65.7946 18.7604 65.3624 18.1187 65.0481 17.3852C64.7338 16.6518 64.5766 15.866 64.5766 15.0278C64.5766 14.1896 64.7338 13.4038 65.0481 12.6703C65.3624 11.9369 65.7946 11.2952 66.3447 10.7451C66.8948 10.195 67.5365 9.76283 68.27 9.4485C69.0034 9.13417 69.7892 8.97701 70.6274 8.97701C71.4656 8.97701 72.2514 9.13417 72.9849 9.4485C73.7183 9.76283 74.36 10.195 74.9101 10.7451C75.4602 11.2952 75.8924 11.9369 76.2067 12.6703C76.521 13.4038 76.6782 14.1896 76.6782 15.0278C76.6782 15.185 76.6651 15.3421 76.6389 15.4993C76.6389 15.6303 76.6258 15.7612 76.5996 15.8922H75.971H74.0457H68.0735C67.7854 15.8922 67.6413 15.7481 67.6413 15.46C67.6413 15.1719 67.7854 15.0278 68.0735 15.0278H74.085C74.085 14.3206 73.9933 13.6526 73.81 13.024C73.6266 12.3953 73.3778 11.8452 73.0634 11.3737C72.7491 10.9023 72.3824 10.5355 71.9633 10.2736C71.5442 9.98547 71.0989 9.84141 70.6274 9.84141C70.1559 9.84141 69.7106 9.98547 69.2915 10.2736C68.8724 10.5355 68.5057 10.9023 68.1914 11.3737C67.877 11.8452 67.6282 12.3953 67.4448 13.024C67.2615 13.6526 67.1698 14.3206 67.1698 15.0278C67.1698 15.735 67.2615 16.403 67.4448 17.0316C67.6282 17.6603 67.877 18.2104 68.1914 18.6818C68.5057 19.1533 68.8724 19.5331 69.2915 19.8213C69.7106 20.0832 70.1559 20.2142 70.6274 20.2142H70.706C71.387 20.2142 72.0288 20.0832 72.6312 19.8213C73.2599 19.5331 73.81 19.1664 74.2814 18.7211C74.3862 18.6164 74.491 18.564 74.5958 18.564C74.8839 18.564 75.028 18.708 75.028 18.9962C75.028 19.1533 74.9756 19.2712 74.8708 19.3498C74.3207 19.8737 73.679 20.2928 72.9456 20.6071C72.2383 20.9214 71.4656 21.0786 70.6274 21.0786ZM91.8098 1.82608C91.8098 1.45936 91.9276 1.15813 92.1634 0.922389C92.4253 0.66045 92.7396 0.529481 93.1064 0.529481C93.4731 0.529481 93.7743 0.66045 94.01 0.922389C94.2458 1.15813 94.3637 1.45936 94.3637 1.82608V19.7427C94.3637 20.0832 94.2458 20.3844 94.01 20.6464C93.7743 20.8821 93.4731 21 93.1064 21C92.7396 21 92.4253 20.8821 92.1634 20.6464C91.9276 20.3844 91.8098 20.0832 91.8098 19.7427V11.2166H81.6727V19.7427C81.6727 20.0832 81.5418 20.3844 81.2798 20.6464C81.0441 20.8821 80.7428 21 80.3761 21C80.0356 21 79.7344 20.8821 79.4724 20.6464C79.2367 20.3844 79.1188 20.0832 79.1188 19.7427V11.2166V10.3522V1.82608C79.1188 1.45936 79.2367 1.15813 79.4724 0.922389C79.7344 0.66045 80.0356 0.529481 80.3761 0.529481C80.7428 0.529481 81.0441 0.66045 81.2798 0.922389C81.5418 1.15813 81.6727 1.45936 81.6727 1.82608V10.3522H91.8098V1.82608ZM102.144 21.0786C101.436 21.0786 100.768 20.9476 100.14 20.6857C99.5373 20.3975 99.0003 20.0308 98.5288 19.5855C98.0573 19.114 97.6906 18.5771 97.4287 17.9746C97.1667 17.346 97.0357 16.678 97.0357 15.9708V10.4308C97.0357 10.0641 97.1405 9.76282 97.3501 9.52708C97.5858 9.29133 97.887 9.16036 98.2538 9.13417C98.6205 9.10798 98.9348 9.22585 99.1967 9.48779C99.4587 9.74973 99.5896 10.0641 99.5896 10.4308V15.9708C99.5896 16.547 99.6551 17.0971 99.7861 17.621C99.9171 18.1187 100.1 18.564 100.336 18.9569C100.572 19.3498 100.834 19.6641 101.122 19.8999C101.436 20.1094 101.777 20.2142 102.144 20.2142C103.113 20.2142 103.964 19.9261 104.697 19.3498V10.5879V10.3915C104.75 9.68424 105.117 9.26514 105.798 9.13417H105.837H105.876H105.915H105.955H105.994H106.033H106.073C106.387 9.16036 106.649 9.29133 106.858 9.52708C107.094 9.73663 107.225 9.99857 107.251 10.3129V10.3522V10.3915V10.4308V19.782C107.251 20.1225 107.147 20.3975 106.937 20.6071C106.754 20.8166 106.518 20.9476 106.23 21C105.968 21.0524 105.693 21.0262 105.405 20.9214C105.143 20.8166 104.946 20.6202 104.815 20.3321C103.977 20.8297 103.087 21.0786 102.144 21.0786ZM115.981 8.97701C116.819 8.97701 117.605 9.13417 118.338 9.4485C119.072 9.76283 119.713 10.195 120.263 10.7451C120.813 11.2952 121.246 11.9369 121.56 12.6703C121.874 13.4038 122.031 14.1896 122.031 15.0278C122.031 15.866 121.874 16.6518 121.56 17.3852C121.246 18.1187 120.813 18.7604 120.263 19.3105C119.713 19.8606 119.072 20.2928 118.338 20.6071C117.605 20.9214 116.819 21.0786 115.981 21.0786C114.671 21.0786 113.505 20.7119 112.484 19.9784C112.431 20.2928 112.287 20.5547 112.052 20.7643C111.842 20.9476 111.554 21.0393 111.187 21.0393C110.847 21.0393 110.545 20.9214 110.284 20.6857C110.048 20.4499 109.93 20.1487 109.93 19.782V15.0278V1.82608C109.93 1.45936 110.048 1.15813 110.284 0.922389C110.545 0.66045 110.847 0.529481 111.187 0.529481C111.554 0.529481 111.855 0.66045 112.091 0.922389C112.353 1.15813 112.484 1.45936 112.484 1.82608V10.0772C112.981 9.73663 113.518 9.47469 114.095 9.29134C114.697 9.08178 115.326 8.97701 115.981 8.97701ZM112.484 18.8783C112.929 19.2712 113.427 19.5855 113.977 19.8213C114.553 20.057 115.169 20.188 115.824 20.2142H115.981C116.452 20.2142 116.897 20.0832 117.317 19.8213C117.736 19.5331 118.102 19.1533 118.417 18.6818C118.731 18.2104 118.98 17.6603 119.163 17.0316C119.347 16.403 119.438 15.735 119.438 15.0278C119.438 14.3206 119.347 13.6526 119.163 13.024C118.98 12.3953 118.731 11.8452 118.417 11.3737C118.102 10.9023 117.736 10.5355 117.317 10.2736C116.897 9.98547 116.452 9.84141 115.981 9.84141H115.902C115.221 9.8676 114.592 9.99857 114.016 10.2343C113.44 10.4701 112.929 10.7975 112.484 11.2166V18.8783Z" fill="black"/>
</svg>
